<svg xmlns="http://www.w3.org/2000/svg" viewBox="0 0 220.8 36.01"><defs><style>.cls-1{fill:#00427b;}.cls-2{fill:#18abb2;}</style></defs><g id="Layer_2" data-name="Layer 2"><g id="레이어_1" data-name="레이어 1"><path class="cls-1" d="M44.45,21.05a1.19,1.19,0,0,0,0-.33v-.85c0-.34,0-.7,0-1.08s0-.75,0-1.09V16.54H41.62V15.33H53.85v1.21H51v4.51H48.87V16.54H46.59v4.51ZM52,11.17a2.71,2.71,0,0,1-.33,1.31,3.58,3.58,0,0,1-.91,1.07,4.53,4.53,0,0,1-1.38.72,5.24,5.24,0,0,1-3.32,0,4.31,4.31,0,0,1-1.36-.72,3.61,3.61,0,0,1-.92-1.07,2.72,2.72,0,0,1-.34-1.31,2.61,2.61,0,0,1,.34-1.31,3.54,3.54,0,0,1,.92-1.06,4.57,4.57,0,0,1,1.35-.71,5.32,5.32,0,0,1,3.19,0,4.87,4.87,0,0,1,1.38.65,3.7,3.7,0,0,1,1,1.06A2.54,2.54,0,0,1,52,11.17Zm-2.12,0a1.91,1.91,0,0,0-.17-.77,2.25,2.25,0,0,0-.46-.69,2.41,2.41,0,0,0-.68-.49A1.86,1.86,0,0,0,47.73,9a2,2,0,0,0-.83.18,2.24,2.24,0,0,0-1.14,1.18,2,2,0,0,0-.17.78,2.12,2.12,0,0,0,.17.83,2.37,2.37,0,0,0,1.14,1.14,2.12,2.12,0,0,0,.83.17,2.09,2.09,0,0,0,.83-.17,2.38,2.38,0,0,0,.69-.48,2.15,2.15,0,0,0,.46-.68A1.91,1.91,0,0,0,49.89,11.17Z"/><path class="cls-1" d="M60.15,10.7a5.47,5.47,0,0,0,.27,1.74,5.33,5.33,0,0,0,.73,1.45,4.28,4.28,0,0,0,1,1,3,3,0,0,0,1.25.53l-1,.93a3.33,3.33,0,0,1-1-.29,4.88,4.88,0,0,1-1-.62,3.94,3.94,0,0,1-.79-.79,2.91,2.91,0,0,1-.47-.88,2.65,2.65,0,0,1-.47.89,4,4,0,0,1-.81.79,3.81,3.81,0,0,1-1,.63,3.58,3.58,0,0,1-1,.27l-1-.93a3.15,3.15,0,0,0,1.23-.52,4.46,4.46,0,0,0,1-1,5.19,5.19,0,0,0,.73-1.45A5.49,5.49,0,0,0,58,10.7V8.18h2.17a.62.62,0,0,0,0,.18v2C60.13,10.48,60.14,10.59,60.15,10.7ZM64,7.92h2.11V11h2.13v1.2H66.08V21H64V20.4c0-.18,0-.4,0-.65s0-.53,0-.84V10c0-.32,0-.6,0-.85s0-.47,0-.64Z"/><path class="cls-1" d="M74,17H69V15.86H81.1V17h-5c0,.37,0,.71,0,1v2.71a.81.81,0,0,0,0,.16H74V17Zm-2-2.71a1.51,1.51,0,0,1-1.09-.4,1.35,1.35,0,0,1-.38-1V8.23h9.17V9.44h-7V10.7h6.6v1.2h-6.6v1.23h7.21v1.2Z"/><path class="cls-1" d="M85.29,9.53H82.83V8.32H90V9.53H87.46v1.28a5.36,5.36,0,0,0,.27,1.7A5.91,5.91,0,0,0,88.45,14a4.5,4.5,0,0,0,1,1.08,2.85,2.85,0,0,0,1.26.51l-1.05.93a2.84,2.84,0,0,1-1-.28,4.69,4.69,0,0,1-1.83-1.42,2.31,2.31,0,0,1-.45-.88,2.88,2.88,0,0,1-.48.89,4.28,4.28,0,0,1-.8.79,4.9,4.9,0,0,1-1,.6,3.57,3.57,0,0,1-1,.3l-1-.93a2.74,2.74,0,0,0,1.23-.51A4.36,4.36,0,0,0,84.29,14,5.61,5.61,0,0,0,85,12.54a5.54,5.54,0,0,0,.27-1.73Zm5.86-1.61h2.13a.59.59,0,0,0,0,.14v2.25c0,.27,0,.55,0,.85H95.4v1.22H93.28c0,.8,0,1.56,0,2.27v6a3.53,3.53,0,0,0,0,.36H91.15V19.75c0-.25,0-.53,0-.84V10c0-.32,0-.6,0-.85V7.92Z"/><path class="cls-1" d="M103.34,18.24V15.6h2.12v2.64h4.84v1.19H98.51V18.24Zm2.14-8.54a5.12,5.12,0,0,0,.38,1.91A3.79,3.79,0,0,0,107,13.17a5.06,5.06,0,0,0,3.11,1.34l-.94.92a5.38,5.38,0,0,1-1.38-.19,5.47,5.47,0,0,1-1.4-.56,5.41,5.41,0,0,1-1.21-.91,3.58,3.58,0,0,1-.81-1.28,3.78,3.78,0,0,1-.67,1.18,3.33,3.33,0,0,1-1.23,1,6.41,6.41,0,0,1-2.88.77l-.94-.92a4.83,4.83,0,0,0,3.06-1.34,3.54,3.54,0,0,0,1.2-1.56,4.93,4.93,0,0,0,.38-1.91V8.2h2.16l0,0v.09c0,.08,0,.17,0,.29s0,.22,0,.34Z"/><path class="cls-1" d="M119.44,16.3h-5.18a1.52,1.52,0,0,1-1.07-.39,1.36,1.36,0,0,1-.41-1c0-.6,0-1.18,0-1.72V9c0-.13,0-.24,0-.33V8.33h2.12v2.58h2.4V8.33h2.14a1.88,1.88,0,0,0,0,.35v5.51C119.43,14.85,119.43,15.55,119.44,16.3Zm-4.54-4.17v3h2.4v-3ZM121.11,21V19.75c0-.25,0-.53,0-.84V10c0-.32,0-.6,0-.85V7.92h2.12V21Z"/><path class="cls-1" d="M128.36,9.53H125.9V8.32H133V9.53h-2.49v1.28a5.36,5.36,0,0,0,.27,1.7,5.91,5.91,0,0,0,.72,1.47,4.69,4.69,0,0,0,1,1.08,2.85,2.85,0,0,0,1.26.51l-1.05.93a2.84,2.84,0,0,1-1-.28,4.69,4.69,0,0,1-1.83-1.42,2.31,2.31,0,0,1-.45-.88,2.88,2.88,0,0,1-.48.89,4.28,4.28,0,0,1-.8.79,4.9,4.9,0,0,1-1,.6,3.57,3.57,0,0,1-1,.3l-1-.93a2.75,2.75,0,0,0,1.22-.51,4.36,4.36,0,0,0,1-1.05,5.32,5.32,0,0,0,.73-1.47,5.54,5.54,0,0,0,.27-1.73Zm5.86-1.61h2.13a.59.59,0,0,0,0,.14v2.25c0,.27,0,.55,0,.85h2.12v1.22h-2.12c0,.8,0,1.56,0,2.27v6a3.53,3.53,0,0,0,0,.36h-2.13V19.75c0-.25,0-.53,0-.84V10c0-.32,0-.6,0-.85V7.92Z"/><path class="cls-1" d="M141.05,15.1V9.55h-1.17V8.33h7.67V9.55h-1.13l0,5.55a10.55,10.55,0,0,0,1.13-.06,7.36,7.36,0,0,0,.92-.15V7.94h2.11V21h-2.11V15.94a6.48,6.48,0,0,1-1,.25,6.29,6.29,0,0,1-1.14.11h-6.59V15.1l.11,0h1Zm3.28,0V9.55h-1.19V15.1Z"/><path class="cls-1" d="M159.08,13.07a2.76,2.76,0,0,1-.24,1.13,2.63,2.63,0,0,1-.69.93,3.38,3.38,0,0,1-1,.65,3,3,0,0,1-2.39,0,3.35,3.35,0,0,1-1-.63,2.68,2.68,0,0,1-.68-1,2.93,2.93,0,0,1-.23-1.13,2.58,2.58,0,0,1,.41-1.45,3.27,3.27,0,0,1,1.09-1h-1.52V9.42h2.07V7.85H157A.41.41,0,0,0,157,8V9.23a1.28,1.28,0,0,0,0,.19h2.1v1.17h-1.58a3.39,3.39,0,0,1,1.14,1.05A2.6,2.6,0,0,1,159.08,13.07Zm-1.94,0a2.34,2.34,0,0,0-.35-1.26,1.19,1.19,0,0,0-.36-.38.81.81,0,0,0-.48-.15.77.77,0,0,0-.46.15,1.67,1.67,0,0,0-.37.38,2.32,2.32,0,0,0-.33,1.26,2.25,2.25,0,0,0,.33,1.24,1,1,0,0,0,.83.55.84.84,0,0,0,.54-.18,1.27,1.27,0,0,0,.37-.48,1.6,1.6,0,0,0,.22-.56A3.07,3.07,0,0,0,157.14,13.07Zm7.31-5.13v2c0,.62,0,1.31,0,2.09v4.79c0,.78,0,1.48,0,2.11v2h-2V12.67h-.91V21h-2V19.78c0-.25,0-.52,0-.82V10c0-.31,0-.6,0-.85V7.94h2v3.53h.91V7.94Z"/><path class="cls-1" d="M178.72,14.39h1.93v1.2h-4.91v5.35H173.6V15.59h-4.9v-1.2h8.14a3.24,3.24,0,0,0,.21-1c0-.37,0-.71,0-1V9.42h-7.36V8.23h8a1.55,1.55,0,0,1,1.07.38,1.3,1.3,0,0,1,.4,1v2.64a4.9,4.9,0,0,1,0,.5c0,.19,0,.38-.07.58a4.74,4.74,0,0,1-.15.57A1.65,1.65,0,0,1,178.72,14.39Z"/><path class="cls-1" d="M189.31,21V15.71l-.94.8a2.92,2.92,0,0,1-.92-.33,4,4,0,0,1-.84-.62,4.18,4.18,0,0,1-.68-.78,2.91,2.91,0,0,1-.38-.83,1.86,1.86,0,0,1-.32.79,4.46,4.46,0,0,1-.67.79,4.61,4.61,0,0,1-.87.63,2.67,2.67,0,0,1-.93.35l-1-.82a3,3,0,0,0,1.11-.59,4,4,0,0,0,.86-1.06,5.41,5.41,0,0,0,.57-1.43,6.73,6.73,0,0,0,.21-1.71V9.53h-1.89V8.32h5.71V9.53h-1.73V10.9a7,7,0,0,0,.2,1.67,5.61,5.61,0,0,0,.56,1.42,3.81,3.81,0,0,0,.84,1.08,3,3,0,0,0,1.1.62V12.31h-1.76v-1.2h1.76V7.89h2V21Zm2.86,0V7.89h2v4.16c0,.78,0,1.57,0,2.38s0,1.62,0,2.41V21Z"/><path class="cls-1" d="M201.65,15.34a3,3,0,0,1-.89-.28,4.15,4.15,0,0,1-1.55-1.28,1.89,1.89,0,0,1-.37-.79,2.25,2.25,0,0,1-.37.81,3.74,3.74,0,0,1-.67.71,4.11,4.11,0,0,1-.85.55,3,3,0,0,1-.92.28l-1-.82a3,3,0,0,0,1.1-.57,3.84,3.84,0,0,0,.86-1,5.18,5.18,0,0,0,.57-1.33A6.06,6.06,0,0,0,197.8,10V8.1h2.07c0,.93,0,1.73.08,2.41a6.76,6.76,0,0,0,.35,1.78,3.52,3.52,0,0,0,.8,1.3,4.48,4.48,0,0,0,1.46.93Zm-1.23,4.44h7.63V21h-8.27a1.45,1.45,0,0,1-1.07-.39,1.37,1.37,0,0,1-.4-1V16.6h2.11v3.18Zm.74-8.82h1.9v-3h2v9.65h-2V12.14h-1.9Zm6.55-3v9.65h-2V7.92Z"/><path class="cls-1" d="M212.55,12.88v2.3h5.14v1.2h-5.8a1.52,1.52,0,0,1-1.07-.38,1.29,1.29,0,0,1-.4-1V8.33h6.5V9.55h-4.37v2.14h3.35v1.19Zm6.11-.13h-2.18V11.56h2.18c0-.34,0-.67,0-1V8.5a1.48,1.48,0,0,0,0-.22,1.15,1.15,0,0,1,0-.18V7.94h2.14v2c0,.62,0,1.31,0,2.09v4.79c0,.78,0,1.48,0,2.11v2h-2.14v-.36c0-.11,0-.25,0-.4s0-.33,0-.53V14.93C218.68,14.24,218.67,13.52,218.66,12.75Z"/><path class="cls-2" d="M6.53,31.86v-6.8A13.5,13.5,0,0,1,22.59,5.31V14a4.52,4.52,0,0,0,4.52,4.52h0V2.4l-1.28-.62A19.31,19.31,0,0,0,23,.71,18,18,0,0,0,6.53,31.86Z"/><path class="cls-1" d="M18,31.5a13.38,13.38,0,0,1-4.58-.8V22a4.52,4.52,0,0,0-4.52-4.52h0V33.61l1.28.62A17.23,17.23,0,0,0,13,35.3,17.67,17.67,0,0,0,18,36,18,18,0,0,0,29.49,4.15V11A13.46,13.46,0,0,1,18,31.5Z"/><circle class="cls-1" cx="11.23" cy="13.68" r="2.77"/><path class="cls-2" d="M24.79,19.56a2.77,2.77,0,1,0,2.77,2.77A2.77,2.77,0,0,0,24.79,19.56Z"/><path class="cls-1" d="M77.56,24.06v5.79h-.94V24.06Z"/><path class="cls-1" d="M79.73,26a.74.74,0,0,1,.42-.32,1.4,1.4,0,0,1,.31-.09,2.11,2.11,0,0,1,1.23.16,1.42,1.42,0,0,1,.54.52,2.11,2.11,0,0,1,.26.73,4.68,4.68,0,0,1,.07.84v2h-1V27.71a3.37,3.37,0,0,0,0-.44,1.26,1.26,0,0,0-.14-.44.87.87,0,0,0-.28-.32.73.73,0,0,0-.45-.14.76.76,0,0,0-.41.11.78.78,0,0,0-.28.29,1.13,1.13,0,0,0-.17.42,2.24,2.24,0,0,0-.06.52v2.14h-1v-4.2h1Z"/><path class="cls-1" d="M85,29.85l-1.62-4.2h1l1.14,3.08,1.11-3.08h1l-1.59,4.2Z"/><path class="cls-1" d="M92.24,29.52a3.12,3.12,0,0,1-.83.32,3.67,3.67,0,0,1-.91.12,2.35,2.35,0,0,1-1-.18,1.8,1.8,0,0,1-.66-.47,1.94,1.94,0,0,1-.38-.69,2.94,2.94,0,0,1-.12-.84,2.86,2.86,0,0,1,.13-.89,2.13,2.13,0,0,1,.39-.71,2,2,0,0,1,.62-.48,1.86,1.86,0,0,1,.84-.17,1.78,1.78,0,0,1,.89.21,2.05,2.05,0,0,1,.63.58,2.64,2.64,0,0,1,.38.83,3.85,3.85,0,0,1,.12,1h-3a.9.9,0,0,0,.31.72,1.25,1.25,0,0,0,.81.26,2.72,2.72,0,0,0,.8-.12,3.12,3.12,0,0,0,.69-.3Zm-.92-2.16a1.17,1.17,0,0,0-.06-.35,1.38,1.38,0,0,0-.2-.33,1.15,1.15,0,0,0-.32-.25,1,1,0,0,0-.43-.1.78.78,0,0,0-.41.11,1,1,0,0,0-.28.26,1.54,1.54,0,0,0-.17.34,1,1,0,0,0,0,.32Z"/><path class="cls-1" d="M93.78,29.07a2.78,2.78,0,0,0,.72.09l.3,0a1.28,1.28,0,0,0,.35-.08.53.53,0,0,0,.23-.18.27.27,0,0,0,0-.28.61.61,0,0,0-.29-.28l-.48-.21-.56-.19a2.23,2.23,0,0,1-.54-.25,1.07,1.07,0,0,1-.38-.35.84.84,0,0,1-.13-.54,1.47,1.47,0,0,1,.18-.65,1.24,1.24,0,0,1,.41-.41,1.92,1.92,0,0,1,.55-.22,3.42,3.42,0,0,1,.65-.06,4.53,4.53,0,0,1,.71.06l.33.1a1.46,1.46,0,0,1,.28.14l-.08.82a2.41,2.41,0,0,0-.55-.19,3.1,3.1,0,0,0-.83-.1l-.2,0a.9.9,0,0,0-.22.06.7.7,0,0,0-.19.15.44.44,0,0,0-.1.24.31.31,0,0,0,.13.32,1.62,1.62,0,0,0,.42.22,5.36,5.36,0,0,0,.57.2,4,4,0,0,1,.6.25,1.7,1.7,0,0,1,.48.35.77.77,0,0,1,.24.51,1,1,0,0,1-.07.53,1.25,1.25,0,0,1-.28.41,2.11,2.11,0,0,1-.49.29,2.35,2.35,0,0,1-.62.17,3,3,0,0,1-.45,0,5.29,5.29,0,0,1-.56-.05,3,3,0,0,1-.54-.13,1.21,1.21,0,0,1-.41-.17l.15-.86A2.67,2.67,0,0,0,93.78,29.07Z"/><path class="cls-1" d="M98.72,24.42v1.19h.87v.8h-.87v2c0,.31.09.5.26.56a.57.57,0,0,0,.3,0,2.15,2.15,0,0,0,.44-.09v.86l-.3.1a1.35,1.35,0,0,1-.31,0,1.57,1.57,0,0,1-1-.29,1.18,1.18,0,0,1-.36-1V26.41h-.91v-.81h.91V24.42Z"/><path class="cls-1" d="M100.4,27.75a2.22,2.22,0,0,1,.61-1.59,2.21,2.21,0,0,1,.66-.47,2.1,2.1,0,0,1,.84-.16,2,2,0,0,1,.85.17,2.16,2.16,0,0,1,.67.48,2.21,2.21,0,0,1,.43.71,2.47,2.47,0,0,1,.15.86,2.54,2.54,0,0,1-.16.94,1.92,1.92,0,0,1-.45.68,1.74,1.74,0,0,1-.66.44,2.31,2.31,0,0,1-.83.15,2.15,2.15,0,0,1-.85-.17,1.83,1.83,0,0,1-.66-.46,1.92,1.92,0,0,1-.45-.69A2.6,2.6,0,0,1,100.4,27.75Zm1,0a2.33,2.33,0,0,0,.07.53,1.63,1.63,0,0,0,.21.44A1,1,0,0,0,102,29a1,1,0,0,0,.49.12,1,1,0,0,0,.85-.44,1.51,1.51,0,0,0,.18-.45,2.24,2.24,0,0,0,.06-.52,1.77,1.77,0,0,0-.08-.58,1.36,1.36,0,0,0-.23-.45,1.17,1.17,0,0,0-.35-.28,1,1,0,0,0-.43-.1,1,1,0,0,0-.49.13,1.19,1.19,0,0,0-.34.33,1.75,1.75,0,0,0-.21.46A2.07,2.07,0,0,0,101.4,27.74Z"/><path class="cls-1" d="M105.35,29.85V25.61h1V26a.86.86,0,0,1,.43-.32,1.72,1.72,0,0,1,.6-.1,2.43,2.43,0,0,1,.49,0l.35.09-.15.89a1.11,1.11,0,0,0-.58-.15,1,1,0,0,0-1,.59,1.71,1.71,0,0,0-.14.56c0,.21,0,.41,0,.61v1.65Z"/><path class="cls-1" d="M111.2,24.06H113a3.69,3.69,0,0,1,1.23.2,2.94,2.94,0,0,1,1,.57,2.76,2.76,0,0,1,.61.9,2.84,2.84,0,0,1,.22,1.15,3.76,3.76,0,0,1-.17,1.19,2.3,2.3,0,0,1-.55.93,2.59,2.59,0,0,1-1,.63,4.17,4.17,0,0,1-1.41.22h-1.68ZM113,29a1.87,1.87,0,0,0,1.49-.55,2.61,2.61,0,0,0,.35-2.32,1.65,1.65,0,0,0-.37-.6,1.73,1.73,0,0,0-.6-.39,2.22,2.22,0,0,0-.81-.13h-.81v4Z"/><path class="cls-1" d="M117.43,26a5.25,5.25,0,0,1,.77-.33,2.56,2.56,0,0,1,.81-.14,1.57,1.57,0,0,1,1.78,1.77c0,.42,0,.84,0,1.27s0,.86,0,1.31h-1v-.32a1.4,1.4,0,0,1-.53.31,2,2,0,0,1-.64.1,2.73,2.73,0,0,1-.66-.07,1.51,1.51,0,0,1-.52-.22,1.18,1.18,0,0,1-.34-.43,1.42,1.42,0,0,1-.13-.65,1.15,1.15,0,0,1,.14-.57,1.29,1.29,0,0,1,.36-.41,2,2,0,0,1,.51-.26,3,3,0,0,1,.59-.15c.2,0,.4,0,.6,0a3.09,3.09,0,0,1,.54,0,2.64,2.64,0,0,0-.11-.41.84.84,0,0,0-.17-.26,1.11,1.11,0,0,0-.7-.18,1.13,1.13,0,0,0-.36.06,3.68,3.68,0,0,0-.35.15l-.33.18-.27.18Zm2,1.94-.38,0a1.57,1.57,0,0,0-.43.09,1.07,1.07,0,0,0-.36.21.47.47,0,0,0-.17.34.61.61,0,0,0,0,.29.34.34,0,0,0,.26.21,1.23,1.23,0,0,0,.57,0,1.05,1.05,0,0,0,.47-.2,1,1,0,0,0,.32-.4,1.09,1.09,0,0,0,.06-.58Z"/><path class="cls-1" d="M125.88,26.36a.51.51,0,0,0-.29.1.8.8,0,0,0-.2.24,2,2,0,0,0-.16.82v2.33h-1V27.49a1.87,1.87,0,0,0,0-.4,1.37,1.37,0,0,0-.11-.36.71.71,0,0,0-.22-.26.49.49,0,0,0-.31-.11.61.61,0,0,0-.32.09.59.59,0,0,0-.2.24,1.07,1.07,0,0,0-.11.37,2,2,0,0,0,0,.43v2.36h-1V25.61h1v.31a.73.73,0,0,1,.31-.29,1.13,1.13,0,0,1,.54-.12,1.07,1.07,0,0,1,.65.18,1.35,1.35,0,0,1,.38.45,1.34,1.34,0,0,1,.53-.47,1.61,1.61,0,0,1,.72-.16,1.47,1.47,0,0,1,1.2.51,2.26,2.26,0,0,1,.42,1.47v2.36h-1V27.53a2.18,2.18,0,0,0-.16-.9A.53.53,0,0,0,125.88,26.36Z"/><path class="cls-1" d="M129,26a4.71,4.71,0,0,1,.76-.33,2.56,2.56,0,0,1,.81-.14,1.57,1.57,0,0,1,1.78,1.77c0,.42,0,.84,0,1.27s0,.86,0,1.31h-1v-.32a1.36,1.36,0,0,1-.52.31,2,2,0,0,1-.65.1,2.59,2.59,0,0,1-.65-.07,1.43,1.43,0,0,1-.52-.22,1.21,1.21,0,0,1-.35-.43,1.57,1.57,0,0,1-.13-.65,1.15,1.15,0,0,1,.14-.57,1.29,1.29,0,0,1,.36-.41,2,2,0,0,1,.51-.26,3.1,3.1,0,0,1,.6-.15c.2,0,.4,0,.6,0a3,3,0,0,1,.53,0,2.64,2.64,0,0,0-.11-.41.69.69,0,0,0-.17-.26,1.07,1.07,0,0,0-.7-.18,1.12,1.12,0,0,0-.35.06l-.36.15-.33.18-.27.18Zm2,1.94-.38,0a1.5,1.5,0,0,0-.42.09,1.07,1.07,0,0,0-.36.21.44.44,0,0,0-.17.34.6.6,0,0,0,0,.29.34.34,0,0,0,.27.21,1.18,1.18,0,0,0,.56,0,1.14,1.14,0,0,0,.48-.2,1,1,0,0,0,.31-.4.92.92,0,0,0,.06-.58Z"/><path class="cls-1" d="M135,31.05a3.28,3.28,0,0,1-.43,0,2.7,2.7,0,0,1-.41-.08,4.29,4.29,0,0,1-.63-.2l.13-.88a2.88,2.88,0,0,0,.79.25,4.41,4.41,0,0,0,.83,0,1,1,0,0,0,.85-.32,1.31,1.31,0,0,0,.24-.82.93.93,0,0,1-.52.37,2.48,2.48,0,0,1-.73.1,2.13,2.13,0,0,1-.78-.14,1.76,1.76,0,0,1-.59-.4,1.9,1.9,0,0,1-.49-1.4,2.19,2.19,0,0,1,.49-1.49,1.51,1.51,0,0,1,.57-.43,1.84,1.84,0,0,1,.8-.16,2.61,2.61,0,0,1,.69.09,1.34,1.34,0,0,1,.55.3v-.3h1V29a2.37,2.37,0,0,1-.16.94,1.56,1.56,0,0,1-.46.63,1.92,1.92,0,0,1-.75.34A4.2,4.2,0,0,1,135,31.05Zm.28-2.38a.93.93,0,0,0,.8-.34,1.34,1.34,0,0,0,.26-.84,1.43,1.43,0,0,0-.07-.46,1.29,1.29,0,0,0-.19-.39,1.13,1.13,0,0,0-.34-.27,1,1,0,0,0-.46-.1.88.88,0,0,0-.43.1,1.35,1.35,0,0,0-.33.26,1.29,1.29,0,0,0-.28.82,1.73,1.73,0,0,0,.06.47.88.88,0,0,0,.18.39.75.75,0,0,0,.32.26A1,1,0,0,0,135.31,28.67Z"/><path class="cls-1" d="M142.09,29.52a3.26,3.26,0,0,1-.83.32,3.74,3.74,0,0,1-.91.12,2.28,2.28,0,0,1-1-.18,1.8,1.8,0,0,1-1-1.16,2.94,2.94,0,0,1-.12-.84,2.86,2.86,0,0,1,.13-.89,2.13,2.13,0,0,1,.39-.71,1.8,1.8,0,0,1,1.46-.65,1.8,1.8,0,0,1,.89.21,2.05,2.05,0,0,1,.63.58,2.42,2.42,0,0,1,.37.83,3.44,3.44,0,0,1,.13,1h-3a.9.9,0,0,0,.31.72,1.21,1.21,0,0,0,.81.26,2.72,2.72,0,0,0,.8-.12,3.59,3.59,0,0,0,.69-.3Zm-.92-2.16a1,1,0,0,0-.07-.35,1.09,1.09,0,0,0-.19-.33,1.15,1.15,0,0,0-.32-.25,1,1,0,0,0-.43-.1.78.78,0,0,0-.41.11,1,1,0,0,0-.28.26,1.2,1.2,0,0,0-.17.34,1,1,0,0,0-.06.32Z"/><path class="cls-1" d="M147.09,24.07a2.73,2.73,0,0,1,.76.1,1.91,1.91,0,0,1,.65.28A1.47,1.47,0,0,1,149,25a1.51,1.51,0,0,1,.17.73,1.28,1.28,0,0,1-.09.48,1.31,1.31,0,0,1-.23.4,1,1,0,0,1-.33.3,1.07,1.07,0,0,1-.39.14,1.31,1.31,0,0,1,.47.49,4.76,4.76,0,0,1,.37.75c.12.27.23.55.34.84a4.86,4.86,0,0,0,.36.76h-1.24c-.11-.29-.22-.59-.31-.9a5.54,5.54,0,0,0-.37-.87,1.41,1.41,0,0,0-.31-.41.84.84,0,0,0-.35-.18,1.32,1.32,0,0,0-.41,0h-.49v2.4h-1V24.07ZM147,26.53a1.58,1.58,0,0,0,.38-.05,1.25,1.25,0,0,0,.35-.16,1,1,0,0,0,.25-.26.75.75,0,0,0,.09-.37.58.58,0,0,0-.1-.35,1,1,0,0,0-.26-.23,1.21,1.21,0,0,0-.35-.13,1.59,1.59,0,0,0-.36,0h-.9v1.59Z"/><path class="cls-1" d="M154.29,29.52a3.26,3.26,0,0,1-.83.32,3.74,3.74,0,0,1-.91.12,2.28,2.28,0,0,1-1-.18,1.8,1.8,0,0,1-1-1.16,2.94,2.94,0,0,1-.12-.84,2.86,2.86,0,0,1,.13-.89,2.13,2.13,0,0,1,.39-.71,1.8,1.8,0,0,1,1.46-.65,1.8,1.8,0,0,1,.89.21,2.05,2.05,0,0,1,.63.58,2.42,2.42,0,0,1,.37.83,3.44,3.44,0,0,1,.13,1h-3a.9.9,0,0,0,.31.72,1.21,1.21,0,0,0,.81.26,2.61,2.61,0,0,0,.79-.12,3.43,3.43,0,0,0,.7-.3Zm-.92-2.16a1,1,0,0,0-.07-.35,1.09,1.09,0,0,0-.19-.33,1.15,1.15,0,0,0-.32-.25,1,1,0,0,0-.44-.1.75.75,0,0,0-.4.11,1,1,0,0,0-.28.26,1.2,1.2,0,0,0-.17.34,1,1,0,0,0-.06.32Z"/><path class="cls-1" d="M155.23,29.85V24.06h1v5.79Z"/><path class="cls-1" d="M157.1,25.12V24.06h1.1v1.06Zm0,4.73V25.78h1.07v4.07Z"/><path class="cls-1" d="M162.8,29.52a3.12,3.12,0,0,1-.83.32,3.67,3.67,0,0,1-.91.12,2.35,2.35,0,0,1-1-.18,1.8,1.8,0,0,1-.66-.47,1.94,1.94,0,0,1-.38-.69,2.94,2.94,0,0,1-.12-.84,2.86,2.86,0,0,1,.13-.89,2.13,2.13,0,0,1,.39-.71,2,2,0,0,1,.62-.48,1.86,1.86,0,0,1,.84-.17,1.8,1.8,0,0,1,.89.21,2.05,2.05,0,0,1,.63.58,2.42,2.42,0,0,1,.37.83,3.44,3.44,0,0,1,.13,1h-3a.9.9,0,0,0,.31.72,1.23,1.23,0,0,0,.81.26,2.72,2.72,0,0,0,.8-.12,3.12,3.12,0,0,0,.69-.3Zm-.92-2.16a1,1,0,0,0-.07-.35,1.09,1.09,0,0,0-.19-.33,1.15,1.15,0,0,0-.32-.25,1,1,0,0,0-.43-.1.78.78,0,0,0-.41.11,1,1,0,0,0-.28.26A1.2,1.2,0,0,0,160,27a1,1,0,0,0,0,.32Z"/><path class="cls-1" d="M163.47,25.93h1c0-.24,0-.49,0-.73a1.63,1.63,0,0,1,.19-.7h0a.86.86,0,0,1,.26-.3,1.29,1.29,0,0,1,.33-.17,1.59,1.59,0,0,1,.38-.07,2.48,2.48,0,0,1,.38,0,1.08,1.08,0,0,1,.3,0,.79.79,0,0,1,.27.1l-.08.75-.08,0-.13,0H166a.5.5,0,0,0-.56.4,1,1,0,0,0-.05.38v.39h1.08v.8h-1.07v3.12h-1V26.73h-1Z"/><path class="cls-1" d="M172,29.93a3.13,3.13,0,0,1-1.17-.21,2.62,2.62,0,0,1-.92-.6,2.73,2.73,0,0,1-.59-.94,3.62,3.62,0,0,1-.21-1.28,3,3,0,0,1,.22-1.12,2.91,2.91,0,0,1,.62-.93,2.55,2.55,0,0,1,.91-.64A2.88,2.88,0,0,1,172,24a2.64,2.64,0,0,1,1.54.44,2.85,2.85,0,0,1,.57.53,3.69,3.69,0,0,1,.46.7h-1a1.68,1.68,0,0,0-.24-.29,1.4,1.4,0,0,0-.3-.23,1.6,1.6,0,0,0-.42-.16,2.26,2.26,0,0,0-.57-.06,1.71,1.71,0,0,0-.75.16,1.83,1.83,0,0,0-.59.43,2.23,2.23,0,0,0-.4.64,2.19,2.19,0,0,0-.14.77,2.66,2.66,0,0,0,.14.88,2.4,2.4,0,0,0,.39.66,1.57,1.57,0,0,0,.6.41A1.86,1.86,0,0,0,172,29a1.8,1.8,0,0,0,1.49-.72h1.11a3.36,3.36,0,0,1-1.07,1.2A2.72,2.72,0,0,1,172,29.93Z"/><path class="cls-1" d="M179.12,29.52a3.26,3.26,0,0,1-.83.32,3.67,3.67,0,0,1-.91.12,2.32,2.32,0,0,1-1-.18,1.8,1.8,0,0,1-.66-.47,1.94,1.94,0,0,1-.38-.69,2.94,2.94,0,0,1-.12-.84,2.86,2.86,0,0,1,.13-.89,2.13,2.13,0,0,1,.39-.71,2,2,0,0,1,.62-.48,1.86,1.86,0,0,1,.84-.17,1.8,1.8,0,0,1,.89.21,2.05,2.05,0,0,1,.63.58,2.42,2.42,0,0,1,.37.83,3.44,3.44,0,0,1,.13,1h-3a.9.9,0,0,0,.31.72,1.21,1.21,0,0,0,.81.26,2.72,2.72,0,0,0,.8-.12,3.12,3.12,0,0,0,.69-.3Zm-.92-2.16a1,1,0,0,0-.07-.35,1.09,1.09,0,0,0-.19-.33,1.15,1.15,0,0,0-.32-.25,1,1,0,0,0-.43-.1.78.78,0,0,0-.41.11,1,1,0,0,0-.28.26,1.2,1.2,0,0,0-.17.34,1,1,0,0,0-.06.32Z"/><path class="cls-1" d="M181.19,26a.75.75,0,0,1,.41-.32,1.58,1.58,0,0,1,.31-.09,1.87,1.87,0,0,1,.34,0,1.82,1.82,0,0,1,.9.19,1.39,1.39,0,0,1,.53.52A2.12,2.12,0,0,1,184,27a5.83,5.83,0,0,1,.07.84v2h-1V27.71a2.25,2.25,0,0,0,0-.44,1.26,1.26,0,0,0-.14-.44.87.87,0,0,0-.28-.32.68.68,0,0,0-.44-.14.82.82,0,0,0-.42.11.86.86,0,0,0-.28.29,1.6,1.6,0,0,0-.17.42,3,3,0,0,0-.05.52v2.14h-1v-4.2h1Z"/><path class="cls-1" d="M186.74,24.42v1.19h.86v.8h-.86v2c0,.31.08.5.25.56a.61.61,0,0,0,.31,0,2.21,2.21,0,0,0,.43-.09v.86l-.29.1a1.51,1.51,0,0,1-.32,0,1.59,1.59,0,0,1-1-.29,1.18,1.18,0,0,1-.36-1V26.41h-.91v-.81h.91V24.42Z"/><path class="cls-1" d="M192.25,29.52a3.26,3.26,0,0,1-.83.32,3.74,3.74,0,0,1-.91.12,2.28,2.28,0,0,1-1-.18,1.8,1.8,0,0,1-1-1.16,2.94,2.94,0,0,1-.12-.84,2.86,2.86,0,0,1,.13-.89,2.13,2.13,0,0,1,.39-.71,1.8,1.8,0,0,1,1.46-.65,1.8,1.8,0,0,1,.89.21,2.05,2.05,0,0,1,.63.58,2.42,2.42,0,0,1,.37.83,3.85,3.85,0,0,1,.13,1h-3a.9.9,0,0,0,.31.72,1.21,1.21,0,0,0,.81.26,2.61,2.61,0,0,0,.79-.12,3.43,3.43,0,0,0,.7-.3Zm-.92-2.16a1,1,0,0,0-.07-.35,1.09,1.09,0,0,0-.19-.33,1.15,1.15,0,0,0-.32-.25,1,1,0,0,0-.44-.1.75.75,0,0,0-.4.11,1,1,0,0,0-.28.26,1.2,1.2,0,0,0-.17.34,1,1,0,0,0-.06.32Z"/><path class="cls-1" d="M193.1,29.85V25.61h1V26a.86.86,0,0,1,.43-.32,1.72,1.72,0,0,1,.6-.1,2.43,2.43,0,0,1,.49,0l.35.09-.15.89a1.11,1.11,0,0,0-.58-.15,1,1,0,0,0-1,.59,1.71,1.71,0,0,0-.14.56c0,.21,0,.41,0,.61v1.65Z"/></g></g></svg>