<svg xmlns="http://www.w3.org/2000/svg" viewBox="0 0 79.06 79.06"><defs><style>.cls-1{fill:#fff;}.cls-2{fill:#5885af;}</style></defs><g id="Layer_2" data-name="Layer 2"><g id="레이어_1" data-name="레이어 1"><rect class="cls-1" width="79.06" height="79.06" rx="11.94"/><path class="cls-2" d="M19.39,63.85V51.91A23.66,23.66,0,0,1,47.57,17.26v15.3a7.93,7.93,0,0,0,7.93,7.93h0V12.15l-2.25-1.09a31.83,31.83,0,0,0-4.89-1.88A31.65,31.65,0,0,0,7.94,39.54,31.78,31.78,0,0,0,19.39,63.85Z"/><path class="cls-2" d="M39.54,63.2a23.39,23.39,0,0,1-8-1.39V46.51a7.93,7.93,0,0,0-7.93-7.92h0V66.91L25.81,68a31.09,31.09,0,0,0,4.9,1.88A31.62,31.62,0,0,0,71.13,39.54,31.79,31.79,0,0,0,59.69,15.22v12a23.63,23.63,0,0,1-20.15,36Z"/><path class="cls-2" d="M27.64,36.81A4.87,4.87,0,1,0,22.77,32,4.87,4.87,0,0,0,27.64,36.81Z"/><circle class="cls-2" cx="51.44" cy="47.12" r="4.86"/></g></g></svg>